{
	"asset":{
		"generator":"Khronos glTF Blender I/O v3.5.30",
		"version":"2.0"
	},
	"extensionsUsed":[
		"KHR_materials_specular",
		"KHR_materials_ior"
	],
	"scene":0,
	"scenes":[
		{
			"name":"Scene",
			"nodes":[
				0,
				1,
				2
			]
		}
	],
	"nodes":[
		{
			"name":"Empty",
			"rotation":[
				0.7071068286895752,
				0,
				0,
				0.7071068286895752
			]
		},
		{
			"mesh":0,
			"name":"Plane",
			"rotation":[
				0.7071068286895752,
				0,
				0,
				0.7071068286895752
			],
			"translation":[
				0,
				0,
				1
			]
		},
		{
			"mesh":1,
			"name":"Cube",
			"scale":[
				0.022765690460801125,
				0.022765690460801125,
				0.022765690460801125
			],
			"translation":[
				1.144428014755249,
				-1.6743630170822144,
				0.9964733123779297
			]
		}
	],
	"materials":[
		{
			"doubleSided":true,
			"extensions":{
				"KHR_materials_specular":{
					"specularColorFactor":[
						0.022839879989624026,
						0.022839879989624026,
						0.022839879989624026
					]
				},
				"KHR_materials_ior":{
					"ior":0
				}
			},
			"name":"Repeat",
			"normalTexture":{
				"index":0
			},
			"pbrMetallicRoughness":{
				"baseColorTexture":{
					"index":1
				},
				"metallicFactor":0,
				"roughnessFactor":0.5498489141464233
			}
		},
		{
			"doubleSided":true,
			"extensions":{
				"KHR_materials_specular":{
					"specularColorFactor":[
						0.3976143218558948,
						0.3976143218558948,
						0.3976143218558948
					]
				},
				"KHR_materials_ior":{
					"ior":1.4500000476837158
				}
			},
			"name":"Solid black",
			"pbrMetallicRoughness":{
				"metallicFactor":0.6374622583389282,
				"roughnessFactor":0.865558922290802
			}
		}
	],
	"meshes":[
		{
			"name":"Plane",
			"primitives":[
				{
					"attributes":{
						"POSITION":0,
						"TEXCOORD_0":1,
						"NORMAL":2
					},
					"indices":3,
					"material":0
				}
			]
		},
		{
			"name":"Cube.001",
			"primitives":[
				{
					"attributes":{
						"POSITION":4,
						"TEXCOORD_0":5,
						"NORMAL":6
					},
					"indices":7,
					"material":1
				}
			]
		}
	],
	"textures":[
		{
			"sampler":0,
			"source":0
		},
		{
			"sampler":0,
			"source":0
		}
	],
	"images":[
		{
			"bufferView":4,
			"mimeType":"image/png",
			"name":"Grayfuzz"
		}
	],
	"accessors":[
		{
			"bufferView":0,
			"componentType":5126,
			"count":72,
			"max":[
				2.353489398956299,
				5.67753986047137e-08,
				1.7076600790023804
			],
			"min":[
				-1.2467281818389893,
				-4.103371620178223,
				-1.1923402547836304
			],
			"type":"VEC3"
		},
		{
			"bufferView":1,
			"componentType":5126,
			"count":72,
			"type":"VEC2"
		},
		{
			"bufferView":2,
			"componentType":5126,
			"count":72,
			"type":"VEC3"
		},
		{
			"bufferView":3,
			"componentType":5123,
			"count":144,
			"type":"SCALAR"
		},
		{
			"bufferView":5,
			"componentType":5126,
			"count":542,
			"max":[
				55.18269348144531,
				127.49849700927734,
				1.4996365308761597
			],
			"min":[
				-107.45781707763672,
				-2.170177459716797,
				-181.192626953125
			],
			"type":"VEC3"
		},
		{
			"bufferView":6,
			"componentType":5126,
			"count":542,
			"type":"VEC2"
		},
		{
			"bufferView":7,
			"componentType":5126,
			"count":542,
			"type":"VEC3"
		},
		{
			"bufferView":8,
			"componentType":5123,
			"count":1068,
			"type":"SCALAR"
		}
	],
	"bufferViews":[
		{
			"buffer":0,
			"byteLength":864,
			"byteOffset":0,
			"target":34962
		},
		{
			"buffer":0,
			"byteLength":576,
			"byteOffset":864,
			"target":34962
		},
		{
			"buffer":0,
			"byteLength":864,
			"byteOffset":1440,
			"target":34962
		},
		{
			"buffer":0,
			"byteLength":288,
			"byteOffset":2304,
			"target":34963
		},
		{
			"buffer":0,
			"byteLength":135459,
			"byteOffset":2592
		},
		{
			"buffer":0,
			"byteLength":6504,
			"byteOffset":138052,
			"target":34962
		},
		{
			"buffer":0,
			"byteLength":4336,
			"byteOffset":144556,
			"target":34962
		},
		{
			"buffer":0,
			"byteLength":6504,
			"byteOffset":148892,
			"target":34962
		},
		{
			"buffer":0,
			"byteLength":2136,
			"byteOffset":155396,
			"target":34963
		}
	],
	"samplers":[
		{
			"magFilter":9729,
			"minFilter":9987
		}
	],
	"buffers":[
		{
			"byteLength":157532,
			"uri":"data:application/octet-stream;base64,"
		}
	]
}
